<svg version="1.2" xmlns="http://www.w3.org/2000/svg" viewBox="0 0 1024 1024" width="1024" height="1024">
	<title>New Project (1)-svg</title>
	<style>
		.s0 { fill: #2e2d2c } 
	</style>
	<g id="Folder 1">
		<path class="s0" d="m18.5 1025c-1.4-2.4 0.8-3 1.9-4 75.7-75.8 151.5-151.6 227.2-227.3q386.6-386.6 773.1-773.1 1.8-1.8 4-2.9c0.3 9.3 0.3 18.3 0.3 27.8-1.4 3.4-3.8 5.5-6 7.8q-353.3 353.2-706.5 706.5-129.9 129.8-259.8 259.7c-1.9 1.9-3.5 4.1-6.4 5.3-9.3 0.2-18.3 0.2-27.8 0.2z"/>
		<path class="s0" d="m637.4 374.9c-1.1 2.1-2.5 3.5-4.1 5.1-7 6.7-13.7 13.8-20.6 20.7-4.2 4.2-8.8 8.2-13 12.6-8.5 8.9-17.5 17.4-26.5 25.9-5.5 5.3-10 11.8-16.1 16.2-3 2.2-4.7 6.3-8.9 6.8-0.5 6.3-6.6 8.3-9.9 12.3-5 6-11.3 10.8-16.8 16.3-4.6 4.4-8.5 9.7-13.5 13.5-3.4 2.5-4.4 7.9-9.8 8.3-0.3 1.2-1 1.9-1.2 3.1-4 4.3-7.8 8.6-12 12.4-6.5 5.9-12.5 12.3-18.7 18.4-2.2 2.1-4.4 4.2-6.8 6.4-0.7-0.3-0.9-0.2-1.1 0.4-1.6 4.2-5.3 6.2-8 9.2-4.7 5.1-9.9 9.8-15.1 14.5-0.4 3.7-4.8 3.5-5.9 6.3-0.6 0.7-1.6 1-2 2.4-6.1 6.9-13.4 12-19.2 18.9-5.1 6-11.6 10.9-16.5 17.3-5.4-1.3-3.8 7.8-9.4 6.4-2.6 6.6-8.1 10.9-13 15.4-5.2 4.8-9 10.8-15.2 14.7-2.4 1.5-4.7 4.4-6.6 6.9-3.1 4-7.6 6.3-10.8 9.7-2.3 2.4-5.1 5-6.9 7.8-4 6.6-12 9.1-15.4 16.3-0.4 0.6-3 1.6-4.5 3.3-6.9 7.9-14.3 15.4-21.9 22.5-4.2 4-8.7 8.1-12.6 12.1-3.6 3.7-8.2 7.1-10.8 12.1-0.4 0.8-1.2 2.1-1.9 2.1-4.8 0.3-6 4.7-8.4 7.5-4.5 5.2-10.2 9.2-14.4 14.8-2.4 3.2-6 5.5-8.8 8.4-6.1 6-12 12.2-18 18.3-1 1-2.3 2.5-3.4 2.5-2.3-0.1-2.8 0.8-2.9 2.8-0.1 1.4-0.8 2.7-2.5 2.1-0.8-0.2-1.5-0.4-1.6 0.3-1.4 7.3-8.7 9.5-12.7 14.5-5.8 7.3-13.3 12.8-19.6 19.6-6.3 6.7-13.5 12.4-19.6 19.1-4.4 4.8-8.7 9.7-13.3 14.3-7.4 7.3-14.8 14.7-21.9 22.4-3.5 3.8-6.5 8.5-10.8 11-3.4 2-6.6 4.7-8.8 7.1-2.8 3-5.8 6-8.4 9.2-2.6 3-5.3 6-8.2 8.7-6 5.4-11.4 11.4-17.1 17-1.5 1.4-2.6 4.2-4.9 4.8-3.7 1.1-4.8 5-7.6 7.2-2.3 1.6-5 4.5-7.1 7.3-3.6 5-9.2 8.5-13.2 13.1-4.6 5.5-10.3 9.7-15.1 14.9-3.8 4.3-7.1 9.5-13 11.9-0.4-8.4-0.4-16.7-0.4-25.5 0.4-5.8 5.1-7.9 8.2-11.1 15.7-16 31.8-31.5 47.7-47.3 5.1-5.1 9.7-10.5 14.7-15.6 4.5-4.4 9.7-8.1 13.8-12.9 8.2-9.6 18.6-17.1 26.2-27.2 2-2.7 5.2-4 7.6-6.4 10.5-11.1 21.3-21.9 32.2-32.6 9.3-9.2 18.4-18.7 27.5-28.1 7.2-7.6 14.9-14.9 22.5-22.2 9.3-9 18.1-18.6 27.6-27.4 10-9.3 19.4-19.1 28.9-28.9 8.3-8.7 17.1-16.8 25.3-25.5 8.7-9.2 18.1-17.6 26.9-26.7 7.6-8 16-15.4 23.6-23.6 8.6-9.4 18.4-17.8 27.2-27.1 13-13.7 26.7-26.7 39.9-40.2 8.5-8.7 17.1-17.3 26-25.5 10.1-9.4 19.4-19.6 29.2-29.3 12-11.8 23.5-24 35.6-35.7 9.5-9.2 18.8-18.8 28.2-28.2 5.1-5.1 9.9-10.7 16-15.3 1-0.7 1.7-1.2 2.1-2.4 3.5-4.6 7.6-8.2 11.6-12 6.5-6.1 12-13.4 18.6-19.3 8.3-7.4 15.9-15.5 23.8-23.3 14.1-13.7 27.9-27.5 41.6-41.5 14.5-14.9 29.4-29.3 44.3-43.8 5.2-5.1 10.4-10.3 15-16 3.1-3.7 7.1-6.4 10.5-9.8 7.4-7.2 13.8-15.3 22-21.7 3.5-2.7 5.8-6.6 9.1-9.7 9-8.5 17.9-16.9 26.4-25.8 11.3-11.7 23-22.9 34.3-34.6 9.9-10.3 20.7-19.7 30.5-30.1 15.9-16.8 32.6-32.8 48.8-49.3 12.2-12.5 24.6-24.7 37-37 12.9-12.9 25.8-25.9 38.6-38.8 10.4-10.4 20.3-21.5 31.8-31.4 9.6-0.2 18.9-0.2 28.7-0.2-0.1 3-2.9 4.3-4.7 6.3-6.2 6.5-12.6 13-19.3 19-4 3.7-7.1 8.2-11 11.6-6.1 5.2-11.4 11-17.3 16.3-6.1 5.6-11.4 12-17.2 18-7.7 7.8-15 16.2-23.6 22.9-4 3.1-6.1 7.8-10.4 10.3-0.2 0.1 0 0.9-0.1 0.9-6.1 1.6-6.3 9.4-12.4 11.4-2.3 0.7-3.8 4.7-6.1 6.8-2.9 2.7-5.1 5.5-9 7.4-2.5 1.2-4.3 6.2-7.3 9-8.1 7.5-15.5 15.9-23.6 23.5-2.3 2.2-4.8 5-7.2 7-6.6 5.4-11.2 12.6-17.6 18.2-5 4.5-9.4 9.8-14.4 14.4-6.5 5.8-11.6 13.2-18.5 18.3-4.5 3.3-9 7.1-11.8 11-7.2 10-18.6 15.7-25.1 26.1-1.2 1.9-4.1 1.4-4.9 4.1-1.3 0.9-2.7 1.3-2.8 3.3-4.8 5.2-9.8 10-14.5 14.9-3 3.2-6.4 6-9.5 9.2-6.1 6.3-12.9 11.8-19.1 18-4.8 5-8.9 10.6-14.7 14.8-4.3 3-6.7 8.5-10.9 11.7-7.4 5.7-12.3 13.6-19.2 19.5-4.7 3.9-8.4 8.9-13.6 12.3-2.8 1.8-4.1 5.6-7.3 7.7z"/>
		<path class="s0" d="m925.7 1.2c9.3-0.2 18.3-0.2 27.8-0.2 1.8 1.6 0.5 2.8-0.4 3.9-1 1.4-2.2 2.5-3.4 3.6q-470.5 470.6-941 941c-2.1 2-3.6 5-7.4 4.7-0.3-9.2-0.3-18.2-0.3-27.7 1.4-3.4 3.8-5.5 6-7.8q353-352.9 705.9-705.8 103.2-103.2 206.4-206.4c1.9-1.9 3.5-4.1 6.4-5.3z"/>
		<path class="s0" d="m243 884.7c-3 1.7-4.9 3.5-6.3 6.3-0.7 1.5-2.5 1-3.6 2.2-3.5 4.2-7.3 8.2-11.4 11.8-2.3 2.1-3.8 4.8-6.4 7-0.6-0.3-0.9-0.4-1.1 0.1-0.4 0.8-1 1.3-1.8 1.9-2.2 0.6-3 2.2-3.8 4-3.8 3.6-8.2 6.8-10.8 10.2-4.5 6-11.1 9.5-15.4 15.7-3.2 4.7-7.4 9.3-12.9 12.5-3 1.8-5.4 5.2-7.7 8-4.9 5.9-11 10.8-16 16.5-1.4 1.6-2.6 3.3-4 4.9-3.4 4-9.2 5.6-11.9 9.6-3 4.7-7.2 7.9-10.8 11.9-4.5 5-8.9 10.1-14.7 13.8-1.2 0.8-1.5 2.1-2.2 3.6-8.9 0.3-17.6 0.3-26.7 0.3 0.1-4.6 4.5-6.1 7.1-9.1 4.3-5.2 9.9-9.2 14.6-14 3.1-3.1 5.7-6.6 8.6-10 2.1-2.6 5.2-4 7.5-6.5 9-9.4 18.3-18.5 27.5-27.7 6.1-6 12.8-11.5 18.2-18.1 5-5.9 11.1-10.6 16.2-16.5 5.8-6.6 12.6-12.4 18.9-18.6q9.7-9.6 19.3-19.2 8.3-8.4 16.5-16.9c4.3-4.5 8.7-9 13.1-13.3 10.6-10 20.1-21.2 31.3-30.6 5.1-4.3 8.7-9.9 13.7-14.1 8.2-7 14.7-15.8 23.1-22.6 5.1-4.1 8.8-9.8 13.4-14.5 3.1-3.1 6.8-5.6 9.7-8.8 5.6-6.1 12-11.4 17.5-17.5 5-5.6 10.5-10.7 15.6-16.1 7.7-8 15.7-15.7 23.7-23.4 2.9-2.7 6.2-5.1 8.1-9.1 1-2.1 4.4-3.1 6.4-5.4 8-9 17.1-16.8 25.3-25.6 7-7.3 14.5-14.1 21.6-21.4 5.2-5.3 10.3-10.9 15.7-15.7 10.8-9.5 19.9-20.7 30.7-30.2 7.5-6.6 14.1-14.4 21.2-21.6 10-10.1 20.4-20 30.3-30.2 5.8-6.1 12.1-11.6 17.6-18.1 6.5-7.5 14.8-13.6 21.4-21.1 4.3-4.9 10.4-8.2 13.3-14.5 0.6-1.4 3.1-1.2 4.5-2.8 6.1-6.6 12.5-12.9 18.8-19.2 6.8-6.8 13.8-13.4 20.7-20.2 5.5-5.5 10.9-11.4 16.4-17 8.3-8.4 16.8-16.7 25.2-24.9 8.5-8.3 17.4-16.3 25.3-25.1 5.2-5.7 11-10.9 16-17 2.4-3 5.8-6 9-8.7 4.7-4.3 8.9-8.9 13.1-13.7 1.6-1.8 4.4-3.8 6.5-5.8 10-9.9 20-19.8 30-29.7 7.4-7.2 14.3-14.9 22.2-21.7 3.4-3 6.4-6.4 9.6-9.7 7-7.3 14.5-14.2 21.5-21.6 6.1-6.5 13.2-12 19.2-18.7 14.9-16.6 31.2-31.7 47-47.4 8.6-8.6 17.2-17.2 25.8-25.8 7.4-7.3 15.1-14.4 22-22.1 4.4-4.9 10-8.6 13.3-14.7 0.5-1 3.2-3.6 5.4-4.8 3.1-1.7 5-4.7 7.5-7.1 5.2-5.2 10.2-10.6 15.4-15.8 9.1-9 18.3-17.8 27.7-26.4 0.3 9 0.3 17.7 0.3 26.8-4.3 4.5-8.8 8.3-12.8 12.7-5.5 5.9-11.2 11.8-17.4 17.2-5.2 4.6-9.3 10.5-14.5 15.2-6.8 6-13.1 12.5-19.5 18.9-4 4-8.5 7.8-12.4 12.1-3.7 3.9-6.3 9.6-12.2 11.2-0.7 0.2-1.2 0.5-1.1 1.3 0.5 3.5-2.7 4.1-4.6 5.8-1.9 1.6-4.7 2.7-5.1 6-2.4 0.5-3.1 2.1-4.2 3.9-7.8 5-12.4 12.7-18.7 18.7-7.8 7.4-15.8 14.6-22.5 23-1.4 1.8-3.5 1.8-5.2 3.7-4.2 4.7-8.3 9.5-12.9 13.9-4.2 3.9-9.2 7.4-12.7 11.7-4.6 5.8-10.5 10.2-15.2 15.8-4.2 5.1-9 9.7-14.5 13.7-3.9 2.9-6.4 7.6-9.9 11.1-7.2 7.3-14.6 14.4-22 21.5-7 6.7-13.2 14.2-20.7 20.6-6.2 5.3-12.1 11.2-17.2 17.9-1 1.4-3.6 1.7-5.4 3.4-0.8 1.1-1 2.2-1.8 3.2-5.1 4.3-9.1 9.3-13.7 13.8-3.9 3.9-8.5 7.3-12.1 11.5-2.4 2.8-4.9 5.4-7.8 7.7-4.8 3.8-9.4 8.3-12.9 12.8-3.9 5-8.7 9-12.8 13.7-3.2 3.9-7.7 7.2-11.5 10.8-2 1.9-3.1 4.8-5.5 6.4-0.9 0.7-2 1.1-3.1 2-0.8 1.4-2.1 1.8-2.8 3.2-11 11.1-21.8 22-32.9 33.1-1.6 1-2.5 2.1-3.2 3.7-3.6 3.6-7 6.9-10.8 10.3-1.6 0.9-2.5 2-3.2 3.7-4.7 3.8-8.3 8.3-12.4 12.2-3.1 3-5.6 6.7-9.9 8.7-2.4 1.2-4.2 4.5-6.2 7-3.4 4.4-7.5 8.3-11.5 12.3-3.9 3.8-7.8 7.7-12 11.2-6.8 5.6-11.6 13.3-19.3 18.2-3.2 2-4.7 6.7-7.8 9.6-6.2 5.8-12.5 11.6-18.3 17.8-4.1 4.4-8.5 8.6-12.7 12.6-8 7.4-14.7 16.2-22.9 23.2-5 4.2-8.7 9.6-14.4 13.3-4.2 2.7-6.5 8.1-11 11.4-4.7 3.5-8.7 8.1-12.7 12.3-4 4.1-7.3 9-11.9 12.4-3.7 2.7-5.2 8-10.5 9.1-0.3 0.1-2.8 3-3.7 4.6-2.4 4.5-7.4 6.6-9.7 11.1-0.3 0.5-0.6 1.2-1.1 1.5-7.4 5.4-12.8 12.7-19.4 18.9-3.9 3.7-8.1 7.1-12.1 10.7-2.2 1.8-4.4 4.5-6.1 7-2.6 3.8-6.4 6.2-9.5 9.8-0.9 1.1-1.9 1.2-2.8 2.2-1.1 1.1-2 2-3.1 3-1.1 1.3-2.1 2-3.8 2.2-3.7 4.1-5.7 9-10.4 12.2-4.9 3.5-8.6 8.7-12.8 13.1-3.9 4.1-7.3 8.7-12.4 11.7-1.9 1-2.2 3.8-4.2 5.4-2.6 2.2-4.8 5.4-7.3 7.5-8.9 7.4-16.2 16.3-24.3 24.5-0.1 0.1-0.1 0.3-0.3 0.4-4.6 2.5-6.9 7.8-10.8 10.4-5.4 3.5-8.2 9.2-13.4 12.6-2.1 1.4-3.4 3.8-5.3 6-0.8 0.5-1.1 1-1.2 1.9z"/>
		<path class="s0" d="m895.5 1c-0.5 3.9-3.7 6.5-6.2 9.2-5.3 5.7-11.5 10.5-17 16-6.4 6.4-12.4 13.2-18.8 19.6-8.7 8.8-17.6 17.3-26.7 25.7-0.6 0.1-0.9 0.2-1 0.4 0.1 2.4-3.5 2.4-3.4 5-0.5 0-0.7 0-0.9 0.3-5.2 2.8-6.8 8.7-11.8 11.7-3.1 1.9-5.7 5.9-8.5 8.8-1.7 1.8-2.7 5.5-6.4 5.3-1 0-1.3 0.4-1.6 1.4-2.4 6.1-7.9 9.6-12.3 13.9-4.4 4.1-8 9-12.9 12.7-5.1 4-9.1 9.1-14.4 13.2-4 3.2-7.2 8.6-11.2 12.6-4.1 4.1-8.6 8-12.5 11.9-5.2 5.2-10.7 10.4-15.5 16.1-3 3.7-6.8 6.9-10.6 10-2 1.6-4.6 4.4-6.6 6.7-3.6 4-6.7 8.7-11.1 12.1-6.1 4.6-11.2 10.3-16.6 15.7-7.4 7.1-14.2 14.7-21.5 21.9-3.5 3.4-8.7 5.5-10.8 11.1-0.7 1.9-4 4.8-6.5 6.5-10.8 7.2-17.5 18.6-27.7 26.6-5.1 4.1-9 10.5-14.4 14.6-2.9 2.2-3.7 6.1-7.4 7.4-0.8 0.3-2.5 1.6-2.8 3.6-1.7 0.3-2.6 1.1-3.2 2.8-6.3 6.3-12.3 12.4-18.6 18.3-1.5 1.4-2.6 2.7-3.7 4.4-0.6-0.1-1 0-1.1 0.4-4 5.8-10 9.5-14.5 14.8-7.8 9.4-17.3 17.1-25.6 26.1-3.8 4.1-7.9 8.3-12.3 12.2-5 4.4-9.6 9.2-14.5 13.8-3.6 3.3-6.7 7.1-10.4 10.4-3.7 3.4-8.8 5.9-11 9.8-2.5 4.4-6.1 7-9.2 10.4-4.3 5-9.1 9.4-14 13.7-6.1 5.4-10.9 12.2-17.2 17.4-5.7 4.6-10.2 10.5-15.3 15.6-5.6 5.7-11.6 11.1-17.1 16.8-5.8 5.9-11.1 12.5-18.1 17.2-2.8 1.9-3.7 5.3-6.3 7.6-5.4 4.7-10 10.3-15 15.4-2.2 2.2-4 4.7-7.4 5.5-2.9 0.7-2.6 4.8-5 6.7-4 3.1-7.5 6.8-11.1 10.4-4.7 4.7-8.8 10.2-14 14.3-3.5 2.7-4.8 8-10.1 8.6-0.7 0.1-1.3 1.9-1.9 2.9-0.5 0.8-0.7 2.1-1.4 2.5-7.2 3.9-10.4 11.7-16.6 16.6-3.1 2.5-5.5 6.2-8.4 8.8-5.4 5.1-10.8 10-15.4 15.8-2.2 2.6-6.1 3.8-8.4 6.3-2.4 2.5-4.9 5.1-6.8 7.8-3.4 4.8-8.5 7.4-12.1 11.7-3.5 4.3-8.7 6.9-11.6 12.1-1.4 2.4-5.2 3.8-6.9 6-3.6 4.4-7.7 8.1-11.6 12.1-4 4.1-8.2 8-12.1 12-4 3.9-8 8.1-11.5 12.6-0.8 1-1.8 2.5-2.8 2.6-5 0.8-5.1 6.2-8.3 8.4-6 4.1-9.8 10.7-16.1 14.7-1.4 0.9-3.3 3.6-4.9 5.6-3.6 4.3-8.7 7.3-11.8 12.2-1 1.4-2.9 1.2-3.6 2.9 0.1 0.5 0 0.6-0.3 0.8-3.1 3.6-6.2 7.1-10 9.5-3.6 2.3-4.8 6.6-8.2 8.9-4.5 3.2-7.1 8.6-12.4 10.8-1.9 0.8-0.6 3-2.4 4.4-6.2 4.5-10.6 11-16.4 15.9-5.8 4.9-10.7 10.5-16.4 15.4-4.8 4.1-8.3 9.7-13 14.1-10 9.2-19.5 19-28.6 29.1-2.4 2.6-4.5 5.4-8.2 7-3.3 1.5-6 5.1-8.2 8.3-1.6 2.3-3.8 3.6-6.1 4.9-0.3-9-0.3-17.7-0.3-26.8 5.5-8.4 12.8-14.5 19.8-20.9 3.7-3.4 6.7-7.3 10.2-10.8 13.2-13.4 26.6-26.5 39.8-39.8 8.6-8.6 17.2-17.1 25.7-25.7 8.2-8.2 16.4-16.5 24.7-24.5 10.4-10.1 19.6-21.2 30.7-30.5 8.4-7 15.3-15.8 23.2-23.4 11.6-11.2 22.8-22.8 34.1-34.3 8.7-8.9 17.6-17.7 26.6-26.3 7.6-7.3 14.2-15.7 22.4-22.6 7-6 13-13.2 19.8-19.6 5.9-5.6 10.6-12.4 17.3-17.1 3.7-2.7 6.1-6.6 9.3-9.8 15.9-15.5 31.2-31.8 47.7-46.8 2.8-2.6 5.2-5.7 7.8-8.5 7.1-7.8 14.7-15.3 22.4-22.5 8.1-7.5 15.2-15.8 23.3-23.2 9-8.2 18.2-16.6 26-26 5.2-6.2 11.6-11 17.1-16.8 11-11.9 22.6-23.4 34.2-34.8 9.5-9.2 18.3-19.3 28.1-28.1 8.4-7.6 16.4-15.7 24.2-23.7 8.9-9 17.6-18.2 26.6-27 9-8.7 18-17.4 26.6-26.3 9.2-9.5 19-18.5 28.2-28.1 7.4-7.8 14.8-15.7 23-22.8 2.5-2.2 4.6-4.8 6.8-7.2 10.3-10.9 21.3-21 31.7-31.7 6.6-6.8 13-13.8 20.2-19.9 4.8-4.1 8.2-9.6 13.1-13.7 8-6.5 13.8-15.3 22.2-21.4 5.2-3.8 8-9.8 12.8-13.9 16.3-13.8 29.9-30.4 45.6-44.7 12.2-11 23.1-23.4 34.8-34.9 8.7-8.6 17.3-17.4 25.6-26.4 4.7-5.2 10.2-10 16.1-14.6 9-0.2 17.7-0.2 26.8-0.2z"/>
		<path class="s0" d="m811.7 1.2c9.7-0.2 19-0.2 28.8-0.2 2.1 2.1 0.5 3.2-0.8 4.6-3.4 3.6-7.2 6.9-10.6 10.5-14.9 15.5-30.3 30.5-45.5 45.6-18.1 18.1-36.4 36.1-54.5 54.2-21.8 21.9-43.9 43.6-65.6 65.6-14.9 15-30.1 29.7-44.9 44.8q-14.7 14.9-29.4 29.8c-11.2 11.4-22.9 22.3-34.1 33.6-13.4 13.4-26.8 26.8-40 40.3-9.3 9.5-18.5 19.2-28 28.4-10.8 10.4-21.1 21.2-31.9 31.6-12.8 12.3-25 25.2-37.5 37.9-18.6 18.7-37.8 36.9-56.2 55.9-10.5 10.9-20.8 22.1-32 32.3-12.3 11.2-23.5 23.4-35.5 34.9-13 12.6-25.8 25.4-38.2 38.7-8.5 9.2-18 17.6-26.9 26.6-12.4 12.5-25 24.8-37.4 37.3-16.8 17-33.7 34-50.6 50.8-11.9 11.9-23.9 23.7-35.6 35.8-13.8 14.2-28 27.9-42 41.9q-19.6 19.6-39.2 39.1c-6.2 6-12.7 11.6-18 18.5-1.1 1.4-2.4 2.9-4.8 2.5-0.3-9.9-0.3-19.6-0.3-29.7 1.4-3.4 3.8-5.5 6-7.8q353.7-353.7 707.5-707.4 45.6-45.6 91.2-91.2c1.7-1.7 3.3-3.8 6-4.9z"/>
		<path class="s0" d="m1025 158.5c-75.4 75.9-150.8 151.3-226.2 226.7q-179.7 179.7-359.4 359.4c-93.3 93.3-186.7 186.6-280.2 280.2-8.9 0.2-17.6 0.2-26.7 0.2-1.7-2.9 1.2-3.5 2.5-4.7 50.3-50.5 100.7-101 151.2-151.4q364.4-364.4 728.8-728.8c3.1-3 5.7-6.5 9.8-8.4 0.2 9 0.2 17.7 0.2 26.8z"/>
		<path class="s0" d="m189.5 1025c0.4-5.8 5.9-7.7 9.3-11.4 6.4-6.9 13-13.6 20-19.9 6.4-5.9 11.8-12.6 18.6-18.1 4.9-4.1 8.8-9.4 13.3-14 6.4-6.6 13-13 19.5-19.4 4.6-4.7 9.1-9.5 13.9-14 8.4-7.9 16.6-16.1 24.6-24.3 6.6-6.8 13.4-13.6 20.1-20.5 6.4-6.6 13-13.3 19.6-19.8 8.6-8.4 17.8-16.3 25.6-25.6 3.5-4.3 8.2-7.7 11.9-12 5.4-6.4 12.1-11.6 17.8-17.8 6.6-7.2 14.3-13.4 20.9-20.6 5.4-5.9 11.2-11.6 17-16.9 12.2-11.5 22.7-24.7 35.9-35.1 1.9-1.5 3.7-3.6 5.2-5.7 1.8-2.6 4.7-4.1 6.5-6.4 8.1-10.2 18.2-18.7 27.3-27.9 11-11.2 22.2-22.3 33.7-33 7.1-6.7 14.5-13.5 20.7-21.2 3.1-3.8 6.9-6.9 10.3-10.3 8.3-8.4 16.2-17.2 24.9-25.2 9.7-8.9 18.8-18.4 28.2-27.7 6.2-6.2 12.7-12.2 18.6-18.9 3-3.5 6.6-6.9 9.9-10.2 5.5-5.6 11.4-10.7 16.7-16.5 3.5-3.9 7.2-8.2 11.9-11.3 4.4-2.9 7-8.1 10.9-11.6 3.9-3.6 7-8.1 11.5-10.9 2.2-1.4 3-3.7 4.5-5.3 5.8-6.2 13.1-10.9 18.2-18 2.8-3.9 7.2-7 10.7-10.7 8.6-8.8 17.8-17 26.3-25.8 8.4-8.8 17.5-16.9 26-25.6 6-6.2 12-12.5 18.1-18.6 6.4-6.2 12.6-12.5 18.9-18.8 3.7-3.7 7.6-7.1 11.1-11 7.7-8.5 16.7-15.7 24.2-24.2 4.2-4.7 9.4-8.4 13.2-13.9 2.3-3.3 6.8-6.6 10.5-9.7 5.5-4.7 10.1-10.5 15.4-15.5 6-5.8 11.4-12.3 17.5-18 9.3-8.8 17.7-18.8 27.2-27.2 13.1-11.7 24.6-24.9 37.4-36.9 9.3-8.7 18.9-17.4 26.7-27.8 1.2-1.5 3.1-1.8 5-2.1 0.3 8.7 0.3 17 0.3 25.8-4.1 6.2-9.2 10.9-14.1 15.7-8.4 8.1-16.7 16.3-24.7 24.9-6.5 6.9-13.2 13.5-20.2 19.8-9.6 8.5-17.1 19-26.7 27.4-13.1 11.6-24.7 24.8-37.4 36.8-6.8 6.4-13.5 12.8-20 19.5-5.9 6-12 11.9-17.8 18.1-7.5 8.1-15.6 15.6-23.6 23.3-7.5 7.2-14.7 14.7-22.4 22.2-1.9 0.4-3 1.2-3.1 3.3-7.8 7-14 15.4-22.1 21.7-1.3 1.1-2.5 2.1-3.7 3.7-2.4-0.1-2.6 1.7-3.5 3.1-5.4 8.4-13.5 13.9-20.3 20.9-1.3 0.6-2.1 1.3-2.7 2.6-3.9 4.5-7.2 9.3-12.5 12.5-1.3 0.6-2.3 1.2-3.4 1.4-0.4 0-0.7 0.1-0.8 0.5 0.3-0.2 0.7-0.3 1.1 0.2-3.7 6.6-9.2 11.4-14.4 16.4-4.5 4.4-8.6 9.3-13.3 13.4-6.2 5.5-10.9 12.7-17.6 17.4-7 4.9-11.4 11.9-17.4 17.7-3.1 3-6 6.6-10.1 8.5-1.3 0.5-2.2 1.5-3 2.5-8.7 11.4-19.1 21-29.7 30.5-3.9 3.5-7.2 7.8-11.1 11.4-3.6 3.4-7 7.1-11.2 10.4-1.1 0.4-2.5 0.2-2 2.1-2.4 6.3-8.3 9.2-12.4 13.7-6.9 7.7-15.5 13.7-21.9 22-2.4 3-5.8 5.3-8.6 8.1-6.9 6.7-12.8 14.5-20.3 20.4-6.3 5-10.2 12-16.6 16.8-6.4 4.8-11.1 11.4-16.9 16.8-11 10.5-21.2 21.7-31.9 32.4-5.6 5.5-11.7 10.7-16.9 16.5-7.6 8.5-16.8 15.2-23.9 24.2-4 5.2-9.5 9.5-14.5 14-3.2 2.8-5.2 6.8-8.4 9-5.7 4-9.6 9.6-14.5 14.3-8.7 8.2-16.5 17.4-25.3 25.6-5.3 4.9-10.1 10.3-15.4 15.2-7.1 6.4-13.2 14-20.5 20.2-5.1 4.3-8.4 10.1-14.3 13.9-1.7 0.6-2.7 1.6-3.3 3.3-0.5 0.8-1 1.2-1.8 1.6-0.6 0.1-0.9 0.1-1.2 0.1 0 0.4 0.4 0.5 0.5 1.1-6.9 7.2-13.3 14.6-20.8 20.9-4.4 3.7-7.6 8.6-12.7 11.5-2 1.2-2.3 3.9-4 5.6-6.3 6.1-12.8 12-19.2 17.9-6.3 5.8-11.4 12.9-17.7 18.8-9.4 9.1-18.8 18.2-27.2 28.2-3.5 4.2-8.4 6.5-13.3 9.3-8.3 0.2-16.3 0.2-24.8 0.2z"/>
		<path class="s0" d="m1.3 784.2c-0.3-9.2-0.3-18.2-0.3-27.7 1.4-3.4 3.8-5.5 6-7.8q351.9-351.8 703.8-703.7 19.8-19.8 39.6-39.6c1.5-1.5 2.9-3.2 5.3-4.2 9.3-0.2 18.3-0.2 27.8-0.2 1.9 1.9 0.3 3.1-0.7 4.3-1.1 1.4-2.5 2.7-3.8 4q-385 384.9-770 769.8c-2.1 2.2-3.7 5.3-7.7 5.1z"/>
		<path class="s0" d="m245.5 1025c-0.5-2.3 1.6-3.2 2.9-4.5q194-194.1 388.1-388.1 189.9-190 379.9-380c2.6-2.6 5.3-5.1 8.3-7.5 0.3 9.1 0.3 18.1 0.3 27.6-1.4 3.4-3.8 5.5-6 7.7q-352.2 352.2-704.3 704.4-18.1 18-36.1 36c-1.5 1.5-2.9 3.2-5.3 4.2-9.3 0.2-18.3 0.2-27.8 0.2z"/>
		<path class="s0" d="m1 700.5c5.2-2.9 8.2-7.8 11.8-11.8 4.6-4.9 9.6-9.3 14.2-14.1 3.5-3.7 7.3-7.2 10.9-11 5.1-5.6 10.9-10.6 16-16.3 8-8.8 16.9-16.6 25.2-25.2 5.3-5.4 10.4-11.1 16.5-15.9 4.7-3.8 8.6-8.9 13.1-13.2 7.9-7.4 15.3-15.4 23-23 4.7-4.8 10-9.2 14.2-14.6 4.1-5 9.2-9.2 13.9-13.8 5.7-5.7 11.5-11.3 17.1-17 8.5-8.4 17.2-16.7 25.4-25.5 7.6-8.1 16.4-15 23.6-23.2 7.8-8.9 17.1-16.2 24.7-25.3 3.3-4 8.5-6.7 11.4-10.9 4.3-6.4 10.7-10.5 15.5-16.3 5.6-6.8 12.6-12.5 19-18.7q9.2-9 18.4-18.2c6.4-6.3 12.9-12.6 19-19.2 4.1-4.4 8.4-8.7 12.7-12.8 6.8-6.5 13.2-13.3 19.8-19.9 8.6-8.5 17.8-16.4 25.6-25.7 3.6-4.3 8.3-7.7 12-12 5.5-6.4 12.1-11.5 17.8-17.8 6.2-6.9 13.7-12.8 20-19.7 5.7-6.3 11.8-12.3 17.9-17.9 12.2-11.5 23.3-24 35.8-35.2 7.3-6.7 13.8-14.6 21.1-21.4 6.9-6.5 13.4-13.3 20.1-19.9 10.7-10.7 21.4-21.3 32.2-31.9 11.5-11.3 22.4-23.2 34-34.3 6.9-6.6 13.4-13.7 20.1-20.5 7-7.1 14.3-14.1 21.3-21.3 8.9-9.2 18.3-18 27.3-27.3 3.3-3.5 7.2-6.8 10.5-10.3 5.4-5.7 12.1-10.3 16.2-17.2 0.2-0.3 0.9-0.4 1.5-0.9 8.9-0.3 17.6-0.3 26.7-0.3-0.3 4.9-5 6.4-7.8 9.4-3.5 3.6-6.2 8.3-11.5 9.8 1.3 3.3-2.1 3.6-3.5 5.1-4.1 4.5-8.8 8.3-13.5 12.3-4.9 4.1-8.5 10.2-13.3 14.9-4.3 4.3-8.5 8.8-13.2 12.7-2.2 1.7-4.5 3.6-6.1 5.7-4.3 5.4-9.1 10.2-14.6 14.4-1.6 1.2-3.2 3.3-3.4 4.4-0.5 2.6-2 0.8-3.1 1.4-1.1 0.6-1.4 1.3-1.2 2.6-4.8 5.5-10 10.6-15.5 15.3-4.3 3.7-7.2 8.9-12.2 11.8-3.1 1.9-3.2 6.9-7.6 7.1 1 4.3-3.7 3.3-5.3 5.2-1.8 2.3-2.5 5.5-5.4 6.9-3.5 1.7-5.1 5.2-7.6 7.9-3.1 3.2-6.8 6-9.6 9.6-1.3 1.7-2.8 3-5.2 3.3-3.6 0.5-2.8 4.6-5.1 6.7-3.8 3.6-7.7 7.2-11.5 10.8-4.3 4.2-8.3 8.8-12.4 13.1-3.1 3.2-6.3 8.6-9 9-5.1 0.8-3.6 8.4-9.2 7-1.8 5.3-6.4 8.4-9.9 12.4-2.5 2.7-4.7 5.8-8.4 7.3-2 0.8-0.6 3.9-2.7 4.6-5 1.7-6.9 7.1-11.5 9.5-2.6 1.4-3.3 5.5-6.3 7.6-3.3 2.3-6.2 5.3-9 8.4-3.6 4-7 8.4-11.5 11.9-3.1 2.3-6.5 4.8-8.6 8.6-0.9 1.4-3.3 2.5-4.9 3.9-3.6 3.1-6.3 7.1-10.1 10.2-3.2 2.6-6 6.7-9.3 9.9-4.7 4.7-9.3 9.4-14.2 14-4 3.7-8 7.9-11.3 12.5-0.7 0.9-1.4 2.3-2.3 2.5-5.3 0.6-5.8 6.2-9.1 8.6-5.8 4.4-10.6 9.9-15.6 15-2.9 2.9-6 6.3-8.8 9.1-3.3 3.2-6.2 7-10 9.8-3.1 2.2-4.5 7.4-7.8 7.6-4.9 0.3-3.5 7.3-8.4 6.3-3.2 8.6-11.1 12.6-17.2 18.4-1.9 1.8-2.8 4.3-5.5 5.6-4.1 2.1-7 6.6-9.4 9.9-3.6 4.9-8.5 7.9-12.4 12.1-3.9 4.2-8.7 8-12.7 12.1-2.6 2.7-4.9 6.2-7.8 9.1-7.5 7.3-14.4 15.3-22.1 22.5-3.8 3.7-6.4 8.9-10.8 11.2-3.5 1.9-5.1 5.8-9.2 6.8-1 0.3-2.2 3-3.3 4.5-2.5 3.6-5.8 6.5-8.7 9.5-3.4 3.4-7.1 6.6-10.6 10.6-1.3 0.1-2.1 0.5-3.1 1.4-1.8 4.5-5.6 6.9-8.7 10.1-0.5-0.1-0.7-0.2-1-0.1-2.9 4.3-6.6 7.4-10.3 10.5-2.1 1.8-4.2 4-5.8 6-3.3 4.4-7.8 7.5-11.4 11.5-3.8 4.3-7.8 8.4-12.6 12.2-0.3 0.1-0.2 0.3-0.1 0.2-4.6 4.5-8.4 9.8-13.8 14-2.9 2.2-6.6 5-8.2 9.2-1.2 3.3-4.8 4.9-7.3 6.6-3.5 2.5-5.2 6.2-8.4 8.8-3.8 3.1-6.4 7.8-10.1 10.7-4.2 3.4-7.4 7.8-12.1 10.8-1.9 1.2-3.2 4.1-5.3 5.9-3.5 3.1-7.3 6.1-10 10-2.6 3.9-7.9 4.7-9.7 9.7-1.1 2.7-4.3 4.7-6.6 7-6.2 6.1-12.4 12.1-18.5 18.2-8.2 8-16.5 15.9-24.5 24.3-4.9 5.2-9.8 10.5-15.3 15.8-1.4 0.4-1.8 1.3-2.3 2.6-0.7 2.3-2.5 0.4-3.8 1.2-0.4-8.4-0.4-16.7-0.4-25.5z"/>
		<path class="s0" d="m303.5 1025c-0.4-1.2-0.4-2.3 0.7-3.4 6.1-5.8 12.2-11.7 18-17.8 8.5-8.9 17.2-17.7 26.1-26 10.5-9.9 19.9-20.8 30.7-30.4 7.9-7 14.3-15.6 22.1-22.7 9.9-8.9 19-18.7 28.5-28 6.2-6.2 12.8-12 18.5-18.9 2.9-3.5 6.6-6.9 10.1-10.2 5.5-5 10.7-10.2 15.9-15.6 3.9-4.1 7.6-8.6 12.4-12.1 4.2-3.2 7.1-8 10.9-11.5 3.9-3.6 7.6-7.4 11.2-11.2 7.4-8 16-14.8 23.1-23.1 3.7-4.3 7.8-8.5 12.1-12.3 9-7.7 16.9-16.6 25.5-24.7 7.9-7.6 15.8-15.5 23.5-23.4 5.8-6 10.9-12.8 17.3-18 3.9-3.2 7-7.2 10.7-10.6 5.7-5.2 10.6-11.4 16.5-16.5 9.3-8.2 17.2-17.7 26.4-25.9 5.6-5.1 10.9-10.7 15.9-16.5 2.7-3.2 6.1-6 9.2-8.9 7-6.4 13.3-13.6 20.2-20.2 8.9-8.6 16.9-18 26.7-25.8 4.9-4 8.2-9.5 12.8-13.9 8.7-8.2 17.2-16.6 25.6-25.2 6.8-7 14.2-13.6 20.9-20.7 6.8-7.1 13.7-14.3 20.6-21.3 6.4-6.6 13.3-12.8 19.8-19.4 6.1-6.2 12.4-12.4 18.4-18.7 5.7-6 11.8-11.7 17.7-17.5 12.5-12.5 25.1-24.8 37.7-37.2 8.4-8.4 16.8-16.7 24.8-25.5 5.7-6.2 12.1-11.8 18-17.8 5.5-5.6 10.5-11.8 16.3-16.8 8.8-7.4 16-16.3 24.7-23.8 5.9-5.1 11-11.4 16.5-17.1 4.5-4.7 8.6-10.4 15.3-12.8 0.2 8.4 0.2 16.4 0.2 24.9-5.1 7.2-9.7 14.2-17.2 18.9-3.3 2-5.7 5.5-8.1 8.5-6.7 8.4-14.9 15.3-22.6 22.6-5.1 4.9-9.3 10.7-14.6 15.3-1 0.9-1.8 1.9-3.4 2.7-1 0.6-1.7 1.1-2.4 2.1-13.5 15-28.3 28.1-41.6 42.8-6 6.6-13.6 11.7-19.5 18.4-8.4 9.6-18.3 17.6-27 26.9-8.8 9.5-17.9 18.6-27.1 27.7-4.5 4.4-8.8 9-14 13.1-0.6 0.1-0.9-0.1-1.1-0.3-0.2-0.1-0.3-0.1-0.4-0.1-0.6 0.2-0.2 0.9-0.2 0.2 0 0 0.2 0 0.6 0.3-0.4 2.1-1.6 3.4-3.1 4.8-0.8 0.2-0.9-0.4-1-0.4-0.3 0.2-0.2 0.5 0.2 1-9.2 9.1-17.5 18.7-27.4 26.6-2.2 1.7-2.8 4.5-4.8 6.3-11.1 10.3-20.9 21.9-32.3 31.8-8.5 7.3-14.6 16.8-23.2 23.9-10.3 8.5-18.4 19.1-28.3 28-4.8 4.2-9.7 8.5-13.5 13.8-2.8 3.8-6.7 6.4-10.2 9.6-12.6 11.5-23.3 24.9-36 36.3-4.5 4.1-8.2 9.2-13.8 12.6-1.9 0.5-3.5 1.1-4.2 3.3-7.7 9.3-16.1 17.6-24.4 26-9.8 9.9-20.1 19.5-29.6 29.9-6.5 7-13.7 13.4-20.3 20.4-6.2 6.5-12.7 12.9-18.9 19.3-7.7 7.9-15.5 15.6-23.4 23.2-10.4 10.3-20.8 20.6-31.1 31-4.9 4.8-10.1 9.3-14.9 14.2-3.4 3.4-6.5 7-9.9 10.5-6.3 6.5-13.2 12.4-19.7 18.7-3.9 3.8-7.2 8.6-11.5 12.2-8.4 7.1-14.1 16.7-22.8 23.3-7 5.4-12.7 12.1-19.2 18-8.1 7.3-14.9 16-22.8 23.7-5.1 4.9-9 11.2-15.8 14.3-1.5 0.6-1.9 2.2-2.7 3.5-3 4.8-7.4 8.3-12.5 11.4-8.7 0.2-17 0.2-25.8 0.2z"/>
		<path class="s0" d="m359.5 1025c-1.3-2.2 0.9-2.7 1.9-3.7 135.9-136 271.8-271.9 407.7-407.8q123.4-123.3 246.7-246.7c2.8-2.8 5.7-5.5 8.9-8 0.3 9.2 0.3 18.2 0.3 27.7-1.1 2.6-2.6 4.3-4.2 6q-314.1 314-628.2 628.1c-1.5 1.5-2.9 3.2-5.3 4.2-9.3 0.2-18.3 0.2-27.8 0.2z"/>
		<path class="s0" d="m1 643.5c74.5-74.9 149-149.4 223.4-223.9 139.4-139.3 278.8-278.7 418.4-418.3 8.9-0.3 17.6-0.3 26.7-0.3 1.7 2.4-0.7 3-1.7 4-45.3 45.5-90.7 90.8-136.1 136.2q-195.1 195.1-390.3 390.3-68 68-136.1 136.1c-1.1 1.1-2.1 2.6-4.1 2.7-0.2-9-0.2-17.7-0.2-26.8z"/>
		<path class="s0" d="m416.5 1025c2.5-6.3 8.8-9.5 13.2-14.6 6.7-7.9 15.1-14.2 21.8-22.3 2.9-3.5 6.8-6.5 10.1-9.9 8.3-8.3 16.5-16.7 24.7-25 7-7 14-13.8 21-20.6 7.9-7.8 16.2-15.3 23.6-23.5 4.8-5.1 9.4-10.8 14.4-15.2 6.1-5.3 11.7-11.1 17.1-16.9 5.2-5.6 11.3-10 16.2-15.9 4.7-5.8 11.4-10.5 16.4-16.3 7-8 15.5-14.4 22.4-22.4 5.6-6.5 12.4-12.3 18.3-18.6 5.7-5.9 12.2-11.1 17.6-17.3 9.4-10.8 20.6-19.8 30.2-30.5 4.4-4.9 9.2-9.9 14.5-14.3 6.9-5.6 12.6-12.5 18.9-18.8 3.6-3.6 7.4-7 10.9-10.7 8.1-8.5 16.9-16.2 24.9-24.6 4.1-4.4 9.1-8.1 12.5-13.4 1.9-2.9 5.8-5.3 8.6-8.1 6.8-6.8 13.6-13.7 20.4-20.5 5.2-5.2 10.4-10.4 15.6-15.6 8.8-8.7 17-17.9 26-26.2 12.9-11.8 24.6-24.8 37.2-36.9 9.5-9 18.5-18.7 27.7-28 6.5-6.7 13.3-13.3 20.2-19.7 4.8-4.3 8.7-10 13.4-14.3 6.5-6 12.3-12.8 19.1-18.4 3.6-3 6-6.8 9.4-9.9 10.8-9.9 21.1-20.4 31.5-30.7 7-7 14.8-13.6 20.9-21.8 2.4-3.4 6.1-5.8 9.5-8.4 0.3 9 0.3 17.7 0.3 26.8-0.6 2.3-1.4 3.9-2.9 5.4-12.8 12.5-25.1 25.4-38.3 37.6-4.7 4.4-9.2 9.5-13.5 14.4-4.2 4.9-9.7 8.5-14.2 13.3-7 7.4-14.2 14.7-21.4 22.1-9.9 10.3-21 19.4-30.6 29.9-4.6 5.1-9.3 10.3-14.2 14.9-14.7 14.1-27.9 29.8-43.1 43.2-10.7 9.5-19.5 20.6-30.1 30.1-7.7 6.8-14.2 15-21.9 21.8-11.1 10-20.6 21.4-31.7 31.4-6.9 6.1-13.2 13.1-19.5 19.9-4.9 5.2-9.6 10.6-15.4 14.8-2.7 2-4.2 5.1-6.7 7.3-9.2 8.3-17.7 17.3-26.3 26.3-6.9 7.1-14 14.2-21.5 20.7-3.9 3.5-7 7.8-10.8 11.5-10.3 10.1-20.7 20.1-30.6 30.5-11.4 11.8-23 23.5-34.7 35-8.4 8.3-16.1 17.2-25.6 24.4-2.2 1.6-4.3 4.2-6.1 6.6-5.5 7.1-13.1 12-18.8 18.9-7.4 8.9-16.2 16.6-24.7 24.6-7.2 6.8-14.6 13.7-21.1 21-11.6 12.9-24.5 24.2-36.6 36.5-1.3 1.2-2.1 3-4.2 3.9-0.8 0.3-1.2-0.9-1.6-0.1-0.2 0.6-0.1-0.2 0.5 0.4-2.4 5-6.4 8.4-10.3 12-1.4 1.3-2.9 2.6-4.8 4-9.3 0.2-18.3 0.2-27.8 0.2z"/>
		<path class="s0" d="m74.4 540.9c-3.4 4.2-7.3 7.4-11.2 10.7-1.7 1.6-2.9 3.9-4.9 5.6-3.7 3-7 6.5-10.3 10-7.2 7.4-14 15.3-21.6 22.3-8.3 7.7-15.5 16.6-25.1 22.8-0.3-8.7-0.3-17-0.3-25.8 4.1-7.5 10.8-12.1 16.3-17.9 12.9-13.5 26.3-26.4 39.4-39.6 8.1-8.1 16-16.3 24.3-24.3 9.1-8.7 17.6-18 26.7-26.7 8.4-8.1 16.5-16.4 24.8-24.6 10.7-10.5 21.2-21.1 31.7-31.8 9.4-9.6 19.5-18.5 28.4-28.6 5.3-6.1 11.6-11.5 17.5-17.1 7.7-7.6 14.7-15.9 22.6-23.2 6.5-6 12.1-12.8 18.8-18.5 7.4-6.5 13.4-14.3 20.7-20.9 6.2-5.5 12-11.5 17.8-17.5 7-7.2 14.3-14.3 21.6-21.8 0.4-0.4 0.6-0.5 1.1-0.9 11.6-12.1 23.8-23.2 35.2-35 8.6-9 17.4-17.9 26.3-26.6 8.4-8.2 16.3-16.9 24.9-25 9.1-8.5 17.9-17.4 26.5-26.4 10.4-10.7 21.1-21.1 31.7-31.7 14.7-14.8 29.5-29.7 44.4-44.3 8.6-8.4 16.2-17.7 25.5-25.3 3.1-2.5 5.8-5.5 8.1-8.8 2.8-4.2 7.4-6.5 10.8-10.1 12-12.7 24.6-24.8 36.9-37.1 0.4-0.5 1-0.8 1.8-1.6 8.6-0.2 16.9-0.2 25.7-0.2 1.5 1.5 1.5 3.6 0 4-3.6 0.9-4.1 4.5-6.9 6.3-2.3 1.2-3.5 3.1-4.4 5.4-7.8 7.2-15.2 14.5-22.3 22-4.1 4.3-8.3 8.9-12.8 12.3-4.1 3-5.8 7.6-10 10.6-1.1 0.7-2.1 1-2.6 2.4-4.5 4.6-8.9 9-13.2 13.4-1.6 1.6-2.8 3.6-5.4 3.8-0.8 0-1.9 0.8-2.2 1.6-3.1 7.4-10 11.2-15.2 16.6-4.4 4.4-8.6 8.8-13 13.2-2.6 2.6-5.3 5.2-8.3 8.2-3-0.2-3.1 2.4-3.8 3.6-1 1.7-1.3 3.4-3.8 2.9-0.1 3.5-3.5 4.5-5.5 6.5-4.6 4.5-7.5 11.2-14.2 13.4-2.7 0.9 0.1 2.5-1.1 3.5-3.9 3.4-7.4 7.5-11.7 10.1-1.6 0.9-1.2 2-1.9 2.8-3.7 4.1-7.6 7.7-12.3 10.7-2.1 1.3-3.8 4.3-5.3 6.5-4.8 6.7-12.7 10-16.6 17.3-3.7-1-3.6 3.5-6.3 4.5-0.6 1.1-1.3 1.8-1.6 3.1-6.4 4.8-11.2 10.9-16.6 16.3-4.8 4.7-9.2 9.8-14.5 14-2.3 1.9-4.4 5-6.8 7.7-1.2 1-2.5 1.4-3 3-0.7 1-1.1 1.6-1.8 2.4-1.9-1-1.3 1-2.2 1.5-5 0.8-6.4 5.5-8.5 8.3-4.2 5.4-9.9 9.2-14.3 14.5-2.9 3.6-6.1 7.8-10 10.2-4.3 2.8-6.6 7.3-10.5 10-1.6 1-2 3.1-4 3.9-0.9 1.3-2 1.9-2.7 3.3-2.2 1.5-5.5 1.2-5.4 4.9 0 0.9-1.2 1.6-2.4 1.3-0.9-0.3-1.8 0-1.9 1-0.2 6.4-7.3 7.2-9.8 11.9-0.4 0.8-2 1.5-3 2.6-0.8 1.1-1.3 3.2-4.1 2.7-2-0.3 0.2 4-2.9 4.9-2.2 0.6-2.9 4.1-6 3.9-0.4 0-1 0.4-1.2 0.8-2.4 6.4-7.5 10-12.7 14-1.5 1.2-2.6 3.7-4.5 5.2-4.6 3.9-8.4 8.6-12.6 12.8-3.4 3.3-7.2 6.7-10.5 9.9-6.3 6.2-12.4 12.8-18.5 19.3-3.9 4.1-7.5 8.5-11.5 12.6-2.2 2.3-5.3 3-7.6 6-3.7 4.8-8.3 9.1-12.7 13.3-4.7 4.4-8.8 9.6-14.3 13.2-2.4 1.6-3.1 4.8-5.7 6.6-3.7 2.6-6.8 6-9.9 9.3-7.8 8-15.1 16.5-23.2 24-2.9 2.6-5.4 5.9-9.4 7.7-2.1 0.9-5.2 4.1-6.1 6.1-2.7 6.4-8.9 9.1-12.9 14-3.8 4.6-7.7 9.6-12.6 12.9-4.6 3.2-7 8.2-11.5 11.4-2.4 1.7-5.1 4.5-7 7.9-0.5 0.2-0.5-0.2-0.9-0.1z"/>
		<path class="s0" d="m556.5 1c0.9 2.1-1.1 2.7-2.1 3.8-124.4 124.4-248.8 248.7-373.1 373.1q-86.8 86.8-173.5 173.5c-2 2-4.1 4-6.5 5.8-0.3-9.2-0.3-18.2-0.3-27.7 1.1-2.6 2.6-4.3 4.2-6q259.1-259 518.2-518.1c1.5-1.5 2.9-3.2 5.3-4.2 9.3-0.2 18.3-0.2 27.8-0.2z"/>
		<path class="s0" d="m473.5 1025c-1.6-2.3 0.7-2.7 1.6-3.7 134.7-134.8 269.5-269.5 404.3-404.3q70.3-70.3 140.6-140.6c1.4-1.4 3-2.7 4.7-3.7 0.3 9.3 0.3 18.3 0.3 27.8-1.1 2.6-2.6 4.3-4.2 6q-257.1 257-514.2 514.1c-1.5 1.5-2.9 3.2-5.3 4.2-9.3 0.2-18.3 0.2-27.8 0.2z"/>
		<path class="s0" d="m269.9 232c-7.8 6.6-14.5 14.5-22 21.5-6 5.6-11.7 12-17.5 17.9-2.3 2.4-4.6 6.9-9.2 7-0.3 0-1 0.7-0.9 1 1.1 5.1-4.5 4.8-5.9 7.3-2.8 4.9-8.3 7.1-10.6 11.9-1 2-3 3.4-4.1 3.9-6.5 3.5-9 10.7-14.5 14.7-5.9 4.3-10.6 9.8-15.9 14.6-4.9 4.3-9 9.8-13.8 14.5-11 10.8-21.7 21.9-32.3 33.1-2.5 2.7-5.7 5.4-9.4 7.1-1.7 0.8-0.6 3.1-2.4 4.2-5.1 3.1-9 7.8-12.8 11.9-5.3 5.6-10.6 11.5-16.3 16.5-5.3 4.6-10.2 9.9-15 14.7-5.9 5.9-11.8 12.3-17.6 18.5-3.4 3.7-6.1 8.5-11.3 10.6-0.5 0-0.7 0-0.9 0.3-5.9 6.6-11.3 13.4-17.7 19-4 3.4-6.6 7.9-10.8 10.9-0.4 0.3-0.6 1-1 1-3.9 0.6-4 4.7-6.7 6.8-0.3-8.9-0.3-17.9-0.3-27.4 2.9-7.5 9.2-11.8 14.1-17.1 5.8-6 11.9-11.8 17.9-17.7 6.1-5.9 12.1-11.8 18-17.9 12.4-12.9 25.6-25 37.9-38.2 4.4-4.8 9.7-9 14.3-13.8 13.5-14.5 28.4-27.6 41.7-42.2 6.2-6.9 13.1-13.2 19.7-19.7 10.7-10.2 20.7-21.1 31.3-31.4 8.3-8.1 16.5-16.3 24.6-24.5 6.3-6.3 13.1-12.3 19-19 3.7-4.3 8-8 12.1-11.9 6.4-6.1 12.2-12.7 18.6-18.7 8.5-8 15.9-17 24.8-24.6 5-4.2 9-9.7 13.8-14.3 6.4-6 12.5-12.4 18.9-18.5 3.8-3.7 7-8.2 11-11.4 6.5-5.1 11.6-11.4 17.3-17.1 8.7-8.7 17.8-17 26-26.2 4.1-4.5 8.6-8.8 13-13 11.8-11 22.8-22.8 34.3-34.1 8.5-8.2 16.7-16.6 25.4-24.6q6-5.6 11.4-11.9c1.5-1.8 2.9-3.7 5.6-4.5 9-0.2 17.7-0.2 26.8-0.2-0.2 4.7-4.5 6.9-7.4 9.5-3.6 3-5.7 7.6-10.3 9.6-0.5 0.2-1.3 2.9-3.4 3.7-0.3 0.1-0.7-0.2-0.7-0.2 0 0-0.1 0.5-0.2 0.7-2.6 4.3-6.7 7-9.8 10.6-4 4.8-8.6 9.1-13.1 13.2-8.4 7.6-16 16-24.4 23.6-6.6 6-12.3 13.4-19 19.4-2.8 2.6-4.3 7.3-9.2 8.1-0.9 0.2-2.6 3.2-4 4.9-4.3 5.5-9.7 9.9-14.3 15-3.7 3.9-7.3 8.2-11.5 11.4-5.9 4.7-9.1 12.1-16.4 15.3-2.1 1-3.2 4.2-4.9 6.3-5.2 6.3-12 10.8-17.3 17-1.9 2.3-4.7 4.8-7.7 6.9 0.1 3.2-3 4.7-4.4 5.6-5.4 3.1-7.8 8.9-12.6 12.4-5.3 3.9-9.2 9.3-14.1 13.6-4 3.4-8.1 7.6-11.1 12.3-1.2 1.8-2.4 3.4-4.9 3.4-1 0.1-5.6 6.1-7.4 8.7-0.4 0-0.5-0.1-0.5 0z"/>
		<path class="s0" d="m531.5 1025c-1.5-2.7 0.9-4.3 2.2-5.6 7.8-7 14.8-14.9 22.5-21.9 5.2-4.8 10.4-9.8 15-15 7.4-8.1 16.1-15 23.2-23.6 3.6-4.3 7.5-9.3 12.7-12.1 3.9-2 5.5-5.8 8.3-8.6 8.4-8.5 16.5-17.4 25.2-25.6 11.3-10.7 22-22.1 32.9-33.2 3.8-3.9 8-7.4 11.8-11.2 6.8-6.7 13.7-13.3 20.4-20 7.2-7.2 14.3-14.6 21.5-21.8 7.9-7.9 16.2-15.5 23.8-23.6 3.5-3.7 7.5-6.9 10.9-10.7 7.9-8.8 17.1-16.4 25.1-25.1 4-4.3 8.8-8.1 12.3-13.2 2.2-3.2 6.3-6.2 9.7-9.2 3.9-3.5 7.5-7.5 11.3-11.1 7.1-6.8 14.4-13.6 20.9-20.9 7.4-8.3 16.6-14.7 23.4-23.8 5.4-7.1 13.1-12.3 19.5-18.7 8.5-8.6 16.3-17.9 25.2-26 8.3-7.4 16-15.4 23.6-23.3 8.6-8.9 17.8-17.1 26.1-26.3 2.4-2.6 5.6-5.3 8.1-7.9 5.9-5.9 11.8-11.8 17.7-17.7 7.5-7.4 14.5-15.3 22.5-22.3 6-5.3 11.1-11.7 17.4-16.9 0.3 9.3 0.3 18.3 0.3 27.8-6.2 6.9-12 13.6-18.5 19.8-7.1 6.7-14.3 13.3-20.9 20.6-7 7.7-14.6 14.8-21.9 22.3-6.9 7.1-14.7 13.3-21.2 20.8-4.9 5.7-10.4 10.9-16.4 16-2.2 0.7-3.9 1.5-4 4.2-12.4 12.8-24.3 25.6-37 37.7-6.9 6.6-14 12.9-20.2 20.2-6.7 8-14.7 14.6-22.2 21.8-3 2.9-5.6 6.1-8.4 9.1-5.6 6.2-12.8 10.6-17.8 17.3-7 9.2-16.5 15.9-24.3 24.1-9.6 10.1-19.3 20.1-29.6 29.5-6.5 5.9-12.9 12.2-18.9 18.8-3.6 3.8-6.9 8-11.6 11-2.2-0.1-2.9 1.1-3.3 3-0.6 1.1-1.2 1.7-2.2 2.5-0.7 0.3-1.1 0.4-1.9 0.3-0.6-0.3-0.8-0.5-0.7-0.9 0.1-0.3 0-0.2 0.1 0.6 0.2 1-0.1 1.6-0.5 2.5-2.8 5.1-6.9 8.5-10.8 12.1-10.1 9.2-19.2 19.4-28.6 29.3-2 2.2-4.8 3.5-6.8 5.8-10.1 11.1-21 21.5-31.8 32.3-0.8 0.2-1-0.4-1.4-0.2-0.2 0.1-0.1 0.5 0.3 1-8 8.1-15.7 16.3-23.7 24.2-8.8 8.9-18.5 16.9-26.5 26.6-2.2 2.7-5.6 3.5-7.9 6-2.6 2.8-4.6 5.9-7.2 8.7-6.5 7.1-13.3 13.8-21 20.3-8.9 0.2-17.6 0.2-26.7 0.2z"/>
		<path class="s0" d="m442.5 1c1 2.2-1 2.9-2.1 4q-215.1 215.1-430.2 430.2c-2.9 2.8-5.8 5.6-8.9 8.1-0.3-9.3-0.3-18.3-0.3-27.8 1.1-2.6 2.6-4.3 4.2-6q202.1-202 404.2-404.1c1.5-1.5 2.9-3.2 5.3-4.2 9.3-0.2 18.3-0.2 27.8-0.2z"/>
		<path class="s0" d="m587.5 1025c-1.5-2.9 1.3-3.5 2.5-4.7 63.7-63.8 127.4-127.5 191.1-191.2q119.3-119.3 238.6-238.5c1.5-1.5 2.7-3.4 5-3.9 0.3 9.3 0.3 18.3 0.3 27.8-1.1 2.6-2.6 4.3-4.2 6q-200.1 200-400.2 400.1c-1.5 1.5-2.9 3.2-5.3 4.2-9.3 0.2-18.3 0.2-27.8 0.2z"/>
		<path class="s0" d="m310.4 76.3c-2.2 5.2-7 7.7-10.3 11.6-3.4 4.1-7.2 7.8-11.2 11.4-2.2 2.1-3.7 5-7.3 5.6-3.1 0.5-2.5 4.3-4.3 6-4 3.7-8.2 7.3-12.1 11.2-4.3 4.2-8.4 8.7-12.5 13.2-3 3.3-7 5.6-8.9 9.8-5.7-1.6-3.8 8-9.5 6.4-2.4 6.5-7.9 10.6-12.7 15-5.1 4.9-9.7 10.4-15.4 15-5.1 4-9 9.8-14.1 14.3-7.9 7-14.4 15.4-22.6 22.3-5 4.3-9.3 9.6-13.9 14.3-2.3 2.4-6.3 4.6-7.5 7-1.6 3.2-4.3 4.6-6.3 6.6-4.7 4.5-9.2 9.4-14.2 13.8-3.8 3.4-8 7.6-10.9 12.4-1 1.8-2.4 2.9-4.9 3.3-3.7 0.5-3.5 5.1-6.3 7.2-5.9 4.6-10.6 10.7-16.3 15.7-2.5 2.2-5.3 4.7-7.6 7.3-4.4 5.1-9.1 9.8-14 14.4-2.3 2.3-3.4 5.9-7.8 6-1.7 0 0 3.3-1.7 4.2-5.2 2.6-7.3 8.2-11.5 11.7-2.6 2.1-6.3 3.4-6.9 7.4-4.9-3-1.1 6-5.4 3.9-1 3.6-5.1 3.8-6.8 6.4-3.4 5.1-8.5 8.4-12.4 12.6-4.3 4.4-8.6 8.6-13.8 12-0.3-8.7-0.3-17-0.3-25.8 6.3-9.5 15.1-16.3 22.5-24.3 8-8.7 17-16.2 25-24.9 5.4-6 11.3-11.6 17.1-17.3 8.1-8 15.7-16.7 24.4-24.1 9.4-8.1 17.2-17.5 25.8-26.3 7.1-7.2 14.8-13.8 21.7-21.2 11.6-12.3 24.1-23.8 36.2-36.1 0.4-0.5 0.6-0.6 1-1 10.3-10.2 20.1-20.5 30.1-30.4 15.8-15.6 31.3-31.6 47.1-47.1 8.3-8.2 16.4-16.6 24.8-24.6 8.6-8.2 17.7-16.1 25.1-25.5 1.9-2.3 4.5-4 6.6-6.1 15.6-15.4 30.5-31.6 46.7-46.4 0.7-0.7 1.4-1.3 2.6-2 9.3-0.2 18.3-0.2 27.8-0.2-1.4 4.4-5.5 6.8-9 10.1-1.6 0.8-2.9 1.5-4.2 2.8-1.7 5.2-6.4 7.5-9.5 11.2-2.6 3.3-5.8 6.7-8.9 8.9-3.5 2.6-4.6 6.9-9.1 9.1-3.7 1.7-6.8 6.8-10.6 10.3-5.6 5.1-10.2 11.2-15.9 16.2-2.4 2-4 4.6-6.9 6.3-0.3 0-0.7-0.3-0.7-0.3 0 0-0.1 0.5-0.3 0.7z"/>
		<path class="s0" d="m645.5 1025c-1.3-0.5-0.8-1-0.5-1.6 3.4-6.5 9.7-10.4 14.3-16 5.1-6.1 12-11.1 17.8-17 4.8-5 9.6-9.9 14.8-14.5 6.8-6.3 13-13.3 19.6-19.9 6.6-6.7 13.4-13.1 20.1-19.7 4.9-4.8 9.7-9.8 14.3-15 4.5-5.1 9.7-9.7 14.4-14.6q7.9-8 15.8-15.9c6.4-6.3 13-12.5 19.4-18.9 6.2-6.1 12.3-12.4 18.5-18.6 3.8-3.8 7.6-7.5 11.4-11.3 5.8-5.8 11.2-12.1 17.2-17.6 9.8-9.1 18.9-18.7 28.5-27.9 4.7-4.6 9.7-9.1 13.8-14.5 2.8-3.6 7.2-6.8 10.9-10.1 5.6-4.8 10.4-10.4 15.5-15.7 5.7-5.8 11.2-12 17.2-17.6 9.3-8.7 17.6-18.6 27.1-27 13.2-11.8 24.8-25.2 37.7-37.3 9.4-8.7 18.9-17.5 26.8-27.7 0.9-1.2 2.9-1.5 4.6-1.9 0.3 8.7 0.3 17 0.3 25.8-5.2 7.6-11.9 13.2-18.1 19.4-6.6 6.7-13.2 13.5-19.8 20.3-7 7.1-13.9 14.3-21.3 20.8-9.2 8.2-16.4 18.3-25.6 26.3-13.7 12-25.7 25.7-38.8 38.3-7.9 7.7-15.8 15.5-23.7 23.3-7.3 7.1-13.8 14.9-21.2 21.9-12.8 12.2-25.6 24.5-38.4 37.4-1.3 0.5-2.4 0.6-2.5 2.3-2.7 5.6-8.6 7.7-11.8 12.3-4.3 6-10.7 9.8-15.3 15.6-3.2 4-7.1 7.8-11.1 11.2-7.6 6.7-14 14.6-21.5 21.4-4.1 3.6-6.5 9.1-12.4 11.1-1.4 0.4-2.5 3.5-4.4 5.3-1.4 0.7-2.5 1.3-2.9 2.9-7 7.5-13.7 14.7-21 21.4-3.4 3.1-6.9 6.4-9.9 10.1-3.6 4.5-8.7 7.6-12.6 11.9-1.3 1.4-3 2.6-4.1 4.2-4.9 6.8-11.7 11.5-18.4 16.9-8.2 0.2-16.2 0.2-24.7 0.2z"/>
		<path class="s0" d="m328.5 1c1.3 2.8-1.4 3.4-2.7 4.7-81.4 81.5-162.8 162.9-244.2 244.3q-38 38-76 76c-1.3 1.3-2.7 2.4-4.3 3.3-0.3-9.3-0.3-18.3-0.3-27.8 1.1-2.6 2.6-4.3 4.2-6q145.1-145 290.2-290.1c1.5-1.5 2.9-3.2 5.3-4.2 9.3-0.2 18.3-0.2 27.8-0.2z"/>
		<path class="s0" d="m701.5 1025c-1.7-2.8 1.1-3.5 2.3-4.7 45.2-45.3 90.4-90.5 135.6-135.7q89.9-90 179.9-179.9c1.6-1.6 2.8-3.7 5.5-4.1 0.2 9.1 0.2 17.8 0.2 26.9-1.1 2.6-2.6 4.3-4.2 6q-143.6 143.5-287.2 287.1c-1.5 1.5-2.9 3.2-5.3 4.2-9 0.2-17.7 0.2-26.8 0.2z"/>
		<path class="s0" d="m269.5 1c3.3 2.6-0.2 4.2-1 5-9 9.6-19 18.1-28 27.7-4.1 4.4-8.1 9.6-12.9 12.5-5.3 3.2-6 10.8-12.9 11.4-2.3 7-8.5 11-13.5 15.2-8.4 7.1-14.5 16.2-23.4 22.7-4.3 3.1-7.4 8.3-11.6 11.9-3.7 3-6.7 6.7-10.2 9.9-4.2 3.8-8.5 8.1-12.2 12.7-3.9 4.7-7.2 10.3-13.4 12.3-2.9 0.9 0.5 2.6-1.3 3.9-3.9 2.8-7.1 6.7-11 9.7-1.1 0.9-1.8 1.7-2.5 2.8-3.1 4.7-8 7.4-12.3 10.8-1.9 1.5-2.9 4.1-4.5 6.1-5.1 6.4-12.3 10.5-17.2 17.1-1.3 1.7-3.5 2.8-5.2 4.1-4 3.1-6.2 7.7-10.3 10.9-3.7 2.9-7.4 7-10.6 11.1-3.1 4-7 7.6-10.8 11-5 4.4-9 9.6-13.7 14.2-0.8 0.8-1.5 2.1-2.4 2.3-5 1-5.4 6.5-8.7 8.7-6 4.1-9.4 11-15.9 14.4-0.9 0.4-0.9 2.7-2.8 2.9-0.2-9-0.2-17.7-0.2-26.8 1-1.8 1.6-3.4 2.8-4.6 14.1-12.9 26.9-27.1 40.6-40.5 14.4-14.2 28.6-28.6 42.9-42.9 13.6-13.7 27.4-27.2 40.8-41 11.5-11.9 23.6-23.2 35-35.2 10.6-11 21.8-21.5 32.7-32.2 13.1-12.9 26.1-26.1 38.9-39.3 2.9-3.1 5.7-6.5 10-8.6 8.3-0.2 16.3-0.2 24.8-0.2z"/>
		<path class="s0" d="m758.5 1025c-1.3-1.9 0.4-2.7 1.4-3.7 6.6-6.4 13-13.1 19.7-19.4 9.4-8.9 17.9-18.8 27.4-27.6 5.2-4.9 10.1-10.1 15.2-15 2.8-2.8 5.8-6.2 8.4-9.4 2.7-3.2 6.7-5.9 9.9-9.1 4.5-4.5 9.1-9.1 13.2-14 1.3-1.5 3-1.8 4.3-3 3.9-3.4 6.6-7.8 10.2-11.2 3.6-3.4 7.2-6.9 10.5-10.6 3.4-3.8 7.4-7.1 11.1-10.6 6.5-6.3 12.9-12.6 19.3-19 8.6-8.7 17.1-17.5 25.7-26.2 6.7-6.6 13.6-13 20.1-19.9 4.5-4.9 9.4-9.7 14.1-14.3 4.7-4.6 9-9.7 14.2-14 7-5.8 12.9-13 19.4-19.5 3.9-3.9 9-7 12-11.4 2.7-4.1 6.7-6.4 10.1-9.4 0.3 8.7 0.3 17 0.3 25.8-0.8 3.2-2.5 5.2-4.6 7.2-12 11.8-24.2 23.4-36.4 35.5-1.7 0.5-2.8 1.1-2.9 3-3.2 4.4-7.3 7.2-10.6 11.2-5 6.1-11.9 10.4-16.9 17-0.9 0.3-1.4-0.8-1.8-0.1-0.4 0.6-0.2-0.1 0.3 0.5-6.5 8-13.5 15.1-21.1 21.5-0.4 0.3-0.8 0.6-1.1 1-7.4 9.1-16.7 16.4-25 25.2-1.3 0.7-2.2 1.2-2.6 2.7-7.1 7.7-14.4 14.5-21.5 21.6-5.3 5.4-10.8 10.7-16 16.3-2.2 2.5-4.4 5.2-7.6 6.3-1.9 0.7-0.8 2.1-1.6 2.9-4.6 4.9-9 10-14.7 13.7-1.5 1.1-3 2.1-4.1 3.6-10.8 14.7-25.4 25.6-37.7 38.8-3.3 3.6-7.6 6.2-10.1 10.3-1.4 2.4-3.6 1.9-5.7 3.1-8.3 0.2-16.3 0.2-24.8 0.2z"/>
		<path class="s0" d="m214.5 1c1.6 2.6-1 3.2-2.2 4.4-51.8 52-103.8 103.9-155.8 155.9-16.9 16.9-33.9 33.9-50.8 50.8-1.3 1.3-2.4 2.9-4.4 3.2-0.3-9.3-0.3-18.3-0.3-27.8 1.1-2.6 2.6-4.3 4.2-6q88.1-88 176.2-176.1c1.5-1.5 2.9-3.2 5.3-4.2 9.3-0.2 18.3-0.2 27.8-0.2z"/>
		<path class="s0" d="m814.5 1025c-1.2-1.8 0.5-2.3 1.3-3.1q103.5-103.5 207-207c0.5-0.5 1-0.8 1.9-1.1 0.3 9.2 0.3 18.2 0.3 27.7-1.1 2.6-2.6 4.3-4.2 6q-86.6 86.5-173.2 173.1c-1.5 1.5-2.9 3.2-5.3 4.2-9.3 0.2-18.3 0.2-27.8 0.2z"/>
		<path class="s0" d="m871.5 1025c2.6-5.2 7.5-8.8 11.6-13.1 6.9-7.4 14.5-14.1 21.3-21.7 6.7-7.4 14.6-13.7 21.3-21 4.4-4.9 10.1-8.6 13.5-14.3 1-1.8 3.1-1.7 4.5-3.3 6.1-6.7 12.7-13.1 19.2-19.5 6.4-6.5 13.4-12.4 19.5-19.2 4.8-5.3 10.3-10 14.8-15.6 4-4.9 9-9.2 13.6-13.5 4.5-4.3 8.5-9.2 13.8-12.9 0.4 9.1 0.4 18.1 0.4 27.6-2 4.2-4.8 7.1-8.2 9.6-2.8 2-4.8 4.9-7.6 7.4-0.9 0-1.1-0.6-1.6-0.9 0.3 0.3 0.4 0.5 0.6 1.1-1.5 4.7-5.6 6.8-8.6 9.8-9.8 10.1-19.7 20.2-29.9 29.8-8.9 8.4-17 17.6-26.4 25.6-4.5 3.9-8.6 8.8-12.6 13.5-0.7 0.7-1.5 1.3-2.6 2-2 1.1-4 1.5-5 3.8-0.3 0.4-0.4 0.6-0.8 1-0.4 0.4-0.5 0.5-1 0.9-3.7 6.6-9.4 11-14.4 15.9-2.3 2.3-4.2 5.2-7.6 6.8-9.3 0.2-18.3 0.2-27.8 0.2z"/>
		<path class="s0" d="m157.5 1c1 2.5-1.3 3.5-2.5 4.7-5.6 5.4-11.8 10.4-17.2 16-2 2-3.4 5-5.9 6.4-4.1 2.5-6.8 6.5-10.1 9.6-4.2 3.9-8.5 8.6-12.5 13-3.5 3.8-6.1 8.9-11.1 11.3-1.7 0.9-2.2 3-3.2 4-3.7 3.4-7.1 7.5-11.3 10.1-1.8 1.1-2.1 2.5-2.7 3.7-2.3 3.8-6.4 5.3-9.3 8.4-0.1 0.5-0.2 0.6-0.6 0.9-4.2 1.8-5.9 6-8.4 9-3.5 4-8 6.7-11.5 10.6-3.3 3.7-6.5 8.1-11.4 10.3-0.7 0.3-0.2 2.9-0.9 3.3-8.5 4.9-13.7 13.4-20.6 19.9-3.9 3.7-9.2 6.6-11.6 12.1-0.9 1.9-3.4 2.9-5.4 4-0.3-8.7-0.3-17-0.3-25.8 0.5-3.2 1.9-5.2 3.9-7.1 15.5-15 30.9-30.2 46.1-45.5 14.8-14.8 29.6-29.6 44.4-44.4 11.3-11.4 22.8-22.6 34.3-34.3 9.3-0.2 18.3-0.2 27.8-0.2z"/>
		<path class="s0" d="m101.5 1c0.9 1.5-0.4 2-1.2 2.7q-48.7 48.8-97.5 97.5c-0.3 0.4-0.7 0.7-1.5 0.9-0.3-9.1-0.3-18.1-0.3-27.6 1.1-2.4 2.3-4.1 3.9-5.6q31.9-31.9 63.8-63.9c1.4-1.4 2.8-2.9 5-3.8 9.3-0.2 18.3-0.2 27.8-0.2z"/>
		<path class="s0" d="m928.5 1025c-1.5-1.7 0.3-2.2 1-3q46.7-46.7 93.4-93.4c0.4-0.4 1-0.8 1.8-0.9 0.3 9.3 0.3 18.3 0.3 27.8-1.1 2.4-2.3 4.1-3.9 5.6q-29.9 29.9-59.8 59.9c-1.5 1.4-2.8 2.9-5 3.8-9.3 0.2-18.3 0.2-27.8 0.2z"/>
		<path class="s0" d="m42.5 1c0 4.2-1.5 5.7-5.8 7.2-0.8 0.3-1.2 1.7-1.8 2.5-1.3 1.7-1.3 4.4-4.7 3.9-2-0.3 0 2.5-2 3.9-3.5 2.3-6.1 6.1-9 9.3-0.9 1-1.8 2.1-2.9 2.8-5.6 4-8.2 11-15 14.3-0.3-8.9-0.3-17.9-0.3-27.4 4.9-6.3 8.8-13.2 16.7-16.3 8.3-0.2 16.3-0.2 24.8-0.2z"/>
		<path class="s0" d="m986.5 1025c0.1-2.5 0.9-4.3 3.4-6.2 4.4-3.2 7.5-8.1 11.5-12.1 4.7-4.7 9.5-9.5 14.8-13.6 3.3-2.5 4.5-6.8 8.4-9 0.4 9.3 0.4 18.6 0.4 28.4-3 5.1-7.5 8.4-11.7 12.3-9 0.2-17.7 0.2-26.8 0.2z"/>
	</g>
</svg>